<?xml version="1.0" encoding="UTF-8"?>
<svg width="347px" viewBox="0 0 347 106" version="1.1" xmlns="http://www.w3.org/2000/svg" xmlns:xlink="http://www.w3.org/1999/xlink">
    <g id="Page-1" stroke="none" stroke-width="1" fill="none" fill-rule="evenodd">
        <g id="home-mob-02-copy" transform="translate(-15.000000, -80.000000)" fill-rule="nonzero">
            <g id="Asset-1all" transform="translate(15.000000, 80.000000)">
                <polygon id="Path" fill="#80C41D" points="35.97 100.9 35.97 70.64 47.52 70.64 47.52 100.9 35.97 100.9"></polygon>
                <rect id="Rectangle" fill="#80C41D" x="0" y="93.96" width="81.82" height="11.55"></rect>
                <polygon id="Path" fill="#80C41D" points="0 80.86 0 0 38.74 0 44.52 11.55 11.55 11.55 11.55 69.31 70.27 69.31 70.27 28.88 28.88 28.88 28.88 51.98 51.98 51.98 51.98 46.2 35.62 46.2 35.62 34.65 63.53 34.65 63.53 63.53 17.33 63.53 17.33 17.33 81.82 17.33 81.82 80.86 0 80.86"></polygon>
                <path d="M98.23,35.07 C98.199795,33.6744616 98.4620878,32.2880568 99,31 C99.4710572,29.9063858 100.185943,28.9349626 101.09,28.16 C102.013014,27.3820501 103.084793,26.800227 104.24,26.45 C105.511073,26.0489694 106.837203,25.8498811 108.17,25.86 L132.1,25.86 C132.288418,25.8363675 132.477095,25.9018303 132.610387,26.0370824 C132.743679,26.1723345 132.80638,26.361947 132.78,26.55 L132.78,34.07 C132.80638,34.258053 132.743679,34.4476655 132.610387,34.5829176 C132.477095,34.7181697 132.288418,34.7836325 132.1,34.76 L111.44,34.76 C110.471812,34.6565119 109.51362,35.0293493 108.87,35.76 C108.33864,36.6079627 108.086807,37.6013055 108.15,38.6 L108.15,45.1 C108.15,45.6 108.38,45.85 108.84,45.85 L129.84,45.85 C130.029386,45.8219835 130.220772,45.8860265 130.355154,46.0223845 C130.489536,46.1587425 130.550778,46.3510432 130.52,46.54 L130.52,54.06 C130.550778,54.2489568 130.489536,54.4412575 130.355154,54.5776155 C130.220772,54.7139735 130.029386,54.7780165 129.84,54.75 L108.84,54.75 C108.38,54.75 108.15,55 108.15,55.5 L108.15,74.28 C108.177211,74.467378 108.114379,74.6566064 107.980493,74.7904925 C107.846606,74.9243786 107.657378,74.9872113 107.47,74.96 L98.91,74.96 C98.722622,74.9872113 98.5333936,74.9243786 98.3995075,74.7904925 C98.2656214,74.6566064 98.2027887,74.467378 98.23,74.28 L98.23,35.07 Z" id="Path" fill="#3C3C3B"></path>
                <path d="M135.86,50.4 C135.86,47.7333333 135.883333,45.4 135.93,43.4 C135.939584,41.7949943 136.076682,40.1932874 136.34,38.61 C136.7,36.83 137.09,35.24 137.5,33.82 C137.836904,32.5691754 138.3921,31.3876919 139.14,30.33 C140.101563,29.1089947 141.260954,28.0577689 142.57,27.22 C143.904199,26.340155 145.383731,25.7036516 146.94,25.34 C148.365039,25.0758257 149.810708,24.938621 151.26,24.93 C153.033333,24.8833333 155.153333,24.86 157.62,24.86 C160.086667,24.86 162.213333,24.9066667 164,25 C165.446012,25.0079964 166.888416,25.1452089 168.31,25.41 C171.396504,26.1562928 174.143188,27.9169877 176.11,30.41 C176.861983,31.4653089 177.417536,32.647553 177.75,33.9 C178.17,35.32 178.55,36.9 178.92,38.69 C179.173332,40.2745272 179.310365,41.8754695 179.33,43.48 C179.33,45.48 179.4,47.77 179.4,50.48 L179.4,50.89 C179.4,53.58 179.4,55.89 179.33,57.89 C179.310365,59.4945305 179.173332,61.0954728 178.92,62.68 C178.55,64.46 178.17,66.05 177.75,67.47 C177.417536,68.722447 176.861983,69.9046911 176.11,70.96 C174.143188,73.4530123 171.396504,75.2137072 168.31,75.96 C166.888416,76.2247911 165.446012,76.3620036 164,76.37 C162.22,76.4233333 160.1,76.4466667 157.64,76.44 C155.18,76.4333333 153.06,76.41 151.28,76.37 C149.830708,76.361379 148.385039,76.2241743 146.96,75.96 C145.391394,75.5739762 143.904593,74.9101654 142.57,74 C141.260954,73.1622311 140.101563,72.1110053 139.14,70.89 C138.3921,69.8323081 137.836904,68.6508246 137.5,67.4 C137.09,65.98 136.7,64.4 136.34,62.61 C136.076682,61.0267126 135.939584,59.4250057 135.93,57.82 C135.876667,55.86 135.853333,53.5266667 135.86,50.82 L135.86,50.4 Z M153.58,34.4 C152.474929,34.4463084 151.376711,34.5969786 150.3,34.85 C148.846762,35.1267712 147.578716,36.0060468 146.81,37.27 C146.030733,38.9759016 145.687125,40.8485678 145.81,42.72 L145.81,58.47 C145.684572,60.3383459 146.028332,62.2083995 146.81,63.91 C147.574753,65.1795251 148.843992,66.0632648 150.3,66.34 C151.376212,66.5941297 152.474861,66.7415096 153.58,66.78 C154.86,66.85 156.2,66.89 157.58,66.89 C158.96,66.89 160.34,66.89 161.58,66.78 C162.685139,66.7415096 163.783788,66.5941297 164.86,66.34 C166.314504,66.0596938 167.58242,65.1768753 168.35,63.91 C169.126836,62.2068754 169.470369,60.338052 169.35,58.47 L169.35,42.74 C169.467892,40.8688602 169.124504,38.9973974 168.35,37.29 C167.578499,36.0286734 166.311754,35.1503005 164.86,34.87 C163.783289,34.6169786 162.685071,34.4663084 161.58,34.42 C160.3,34.35 158.95,34.32 157.58,34.32 C156.21,34.32 154.86,34.35 153.58,34.42 L153.58,34.4 Z" id="Shape" fill="#3C3C3B"></path>
                <path d="M185.33,25.9 L210.78,25.9 C212.070896,25.9057681 213.348204,26.1639472 214.54,26.66 C215.917317,27.265372 217.153538,28.1508198 218.17,29.26 C220.223333,31.4 221.316667,34.6366667 221.45,38.97 L221.45,40.55 C221.45,44.55 220.973333,47.4666667 220.02,49.3 C219.410965,50.177848 218.742746,51.0131209 218.02,51.8 C217.209568,52.6477329 216.263209,53.3541218 215.22,53.89 C215.15678,53.950807 215.099828,54.0178099 215.05,54.09 C214.981386,54.1898283 214.946359,54.30892 214.95,54.43 C214.949588,54.5265666 214.970055,54.6220812 215.01,54.71 C215.896196,55.8117859 216.645032,57.0173119 217.24,58.3 C217.67,59.3 218.07,60.39 218.43,61.48 L222.2,73.05 C222.290998,73.4180575 222.465504,73.7602264 222.71,74.05 C222.96,74.35 223.09,74.54 223.09,74.63 C223.09,74.72 222.95,74.97 222.68,74.97 L213.24,74.97 C212.96,74.97 212.66,74.73 212.34,74.25 C212.080032,73.885015 211.874547,73.4841502 211.73,73.06 L207.49,61.06 C206.85,58.51 205.55,57.06 203.59,56.82 L195.24,56.82 C195.052622,56.7927887 194.863394,56.8556214 194.729507,56.9895075 C194.595621,57.1233936 194.532789,57.312622 194.56,57.5 L194.56,74.28 C194.583632,74.4684181 194.51817,74.657095 194.382918,74.7903869 C194.247665,74.9236789 194.058053,74.9863805 193.87,74.96 L185.32,74.96 C185.131947,74.9863805 184.942335,74.9236789 184.807082,74.7903869 C184.67183,74.657095 184.606368,74.4684181 184.63,74.28 L184.63,26.59 C184.602117,26.3979731 184.667257,26.2041356 184.805448,26.0679187 C184.943639,25.9317019 185.138394,25.8693573 185.33,25.9 Z M195.25,34.8 C195.062622,34.7727887 194.873394,34.8356214 194.739507,34.9695075 C194.605621,35.1033936 194.542789,35.292622 194.57,35.48 L194.57,46.64 C194.57,47.09 194.81,47.32 195.32,47.32 L207.7,47.32 C208.501492,47.2434798 209.251207,46.8898407 209.82,46.32 C210.513326,45.6959726 211.021839,44.8934207 211.29,44 C211.650004,42.8722276 211.825596,41.6937357 211.81,40.51 C211.809789,39.9252449 211.776402,39.3409727 211.71,38.76 C211.642599,38.2484265 211.490521,37.7516386 211.26,37.29 C210.53,35.79 209.66,34.97 208.66,34.83 L195.25,34.8 Z" id="Shape" fill="#3C3C3B"></path>
                <path d="M228.09,36 C228.063713,34.4595185 228.224896,32.9215584 228.57,31.42 C228.827011,30.2517582 229.393457,29.1741289 230.21,28.3 C231.077187,27.4523472 232.148359,26.8427091 233.32,26.53 C234.916769,26.1003013 236.56687,25.9016156 238.22,25.94 C241.093333,25.94 243.18,26.3966667 244.48,27.31 C245.756842,28.1990187 246.686219,29.5029732 247.11,31 L256.28,64.8 C256.42,65.25 256.64,65.48 256.96,65.48 C257.28,65.48 257.44,65.25 257.44,64.8 L257.44,26.59 C257.41362,26.401947 257.476321,26.2123345 257.609613,26.0770824 C257.742905,25.9418303 257.931582,25.8763675 258.12,25.9 L266.68,25.9 C266.869386,25.8719835 267.060772,25.9360265 267.195154,26.0723845 C267.329536,26.2087425 267.390778,26.4010432 267.36,26.59 L267.36,67.09 C267.35578,68.0293528 267.172508,68.959288 266.82,69.83 C266.45265,70.738871 265.957676,71.5907651 265.35,72.36 C264.750282,73.124154 264.006169,73.7629361 263.16,74.24 C262.335462,74.7135583 261.400851,74.9618681 260.45,74.96 L254.16,74.96 C253.55141,74.94379 252.953886,74.7935553 252.41,74.52 C251.781181,74.2080265 251.196158,73.8146486 250.67,73.35 C250.123445,72.8805513 249.639482,72.3428143 249.23,71.75 C248.834021,71.1862348 248.533351,70.5612456 248.34,69.9 L239.11,35.9 C238.97,35.49 238.76,35.29 238.49,35.29 C238.22,35.29 238.01,35.49 238.01,35.9 L238.01,74.28 C238.037211,74.467378 237.974379,74.6566064 237.840493,74.7904925 C237.706606,74.9243786 237.517378,74.9872113 237.33,74.96 L228.78,74.96 C228.591947,74.9863805 228.402335,74.9236789 228.267082,74.7903869 C228.13183,74.657095 228.066368,74.4684181 228.09,74.28 L228.09,36 Z" id="Path" fill="#3C3C3B"></path>
                <path d="M272.91,36.37 C272.787112,33.6235171 273.688751,30.9292914 275.44,28.81 C277.12,26.87 279.56,25.9 282.76,25.9 L306,25.9 C306.59,25.9 306.89,26.13 306.89,26.59 L306.89,34.11 C306.91638,34.298053 306.853679,34.4876655 306.720387,34.6229176 C306.587095,34.7581697 306.398418,34.8236325 306.21,34.8 L283.51,34.8 C283.05,34.8 282.83,35.05 282.83,35.55 L282.83,44.86 C282.802789,45.047378 282.865621,45.2366064 282.999507,45.3704925 C283.133394,45.5043786 283.322622,45.5672113 283.51,45.54 L304.51,45.54 C304.698418,45.5163675 304.887095,45.5818303 305.020387,45.7170824 C305.153679,45.8523345 305.21638,46.041947 305.19,46.23 L305.19,54.09 C305.21638,54.278053 305.153679,54.4676655 305.020387,54.6029176 C304.887095,54.7381697 304.698418,54.8036325 304.51,54.78 L283.51,54.78 C283.322622,54.7527887 283.133394,54.8156214 282.999507,54.9495075 C282.865621,55.0833936 282.802789,55.272622 282.83,55.46 L282.83,65.38 C282.799222,65.5689568 282.860464,65.7612575 282.994846,65.8976155 C283.129228,66.0339735 283.320614,66.0980165 283.51,66.07 L306.16,66.07 C306.347378,66.0427887 306.536606,66.1056214 306.670493,66.2395075 C306.804379,66.3733936 306.867211,66.562622 306.84,66.75 L306.84,74.28 C306.867211,74.467378 306.804379,74.6566064 306.670493,74.7904925 C306.536606,74.9243786 306.347378,74.9872113 306.16,74.96 L279.68,74.96 C278.818541,74.952498 277.972727,74.7290106 277.22,74.31 C276.388272,73.8870589 275.636946,73.3218727 275,72.64 C274.363447,71.9634213 273.843101,71.1862811 273.46,70.34 C273.08009,69.5399339 272.882018,68.6656823 272.88,67.78 L272.91,36.37 Z" id="Path" fill="#3C3C3B"></path>
                <path d="M322,74.28 C321.77,74.64 321.56,74.85 321.35,74.89 C321.136968,74.9395751 320.918702,74.9630807 320.7,74.96 L313.11,74.96 C312.844849,74.9672021 312.579754,74.9437127 312.32,74.89 C312.11,74.89 312.01,74.69 312.01,74.42 C312.064182,74.1759888 312.158823,73.9427669 312.29,73.73 L323.71,51.43 C323.825025,51.2535069 323.928573,51.0697939 324.02,50.88 C324.104731,50.7313693 324.162298,50.5688284 324.19,50.4 C324.16376,50.2402041 324.10597,50.087231 324.02,49.95 C323.91,49.75 323.8,49.58 323.71,49.44 L312.32,27.13 C312.189512,26.9204757 312.094881,26.6906566 312.04,26.45 C312.04,26.18 312.14,26.02 312.35,25.97 C312.61047,25.9213163 312.875028,25.8978744 313.14,25.9 L320.73,25.9 C320.948442,25.9018921 321.166164,25.9253391 321.38,25.97 C321.59,26.02 321.8,26.22 322.03,26.59 L329.08,40.07 L329.25,40.44 C329.323333,40.6 329.403333,40.68 329.49,40.68 C329.576667,40.68 329.656667,40.6 329.73,40.44 C329.8,40.29 329.85,40.16 329.9,40.07 L337,26.59 C337.23,26.22 337.44,26.02 337.65,25.97 C337.863836,25.9253391 338.081558,25.9018921 338.3,25.9 L345.89,25.9 C346.154952,25.8983625 346.419464,25.9218003 346.68,25.97 C346.88,26.02 346.99,26.18 346.99,26.45 C346.930013,26.6890049 346.835699,26.9180528 346.71,27.13 L335.23,49.44 C335.136667,49.58 335.036667,49.75 334.93,49.95 C334.839274,50.0848236 334.78108,50.2388657 334.76,50.4 C334.782564,50.5701066 334.840471,50.73361 334.93,50.88 C335.018566,51.0693424 335.118758,51.2530264 335.23,51.43 L346.66,73.73 C346.786464,73.9451238 346.880795,74.1775824 346.94,74.42 C346.94,74.69 346.83,74.85 346.63,74.89 C346.370169,74.9431898 346.105135,74.9666739 345.84,74.96 L338.25,74.96 C338.031298,74.9630807 337.813032,74.9395751 337.6,74.89 C337.39,74.89 337.18,74.64 336.95,74.28 L329.9,60.8 C329.9,60.71 329.8,60.58 329.73,60.42 C329.66,60.26 329.58,60.18 329.49,60.18 C329.4,60.18 329.32,60.26 329.25,60.42 L329.08,60.8 L322,74.28 Z" id="Path" fill="#3C3C3B"></path>
            </g>
        </g>
    </g>
</svg>