<svg width="103" height="44" viewBox="0 0 103 44" version="1.1" xmlns="http://www.w3.org/2000/svg" xmlns:xlink="http://www.w3.org/1999/xlink">
<title>logo_light</title>
<desc>Created using Figma</desc>
<g id="Canvas" transform="translate(-33 -16)">
<g id="logo_light">
<g id="&#208;&#160;&#194;&#164;&#208;&#160;&#209;&#145;&#208;&#160;&#209;&#150;&#208;&#161;&#209;&#147;&#208;&#161;&#208;&#130;&#208;&#160;&#194;&#176; 89 &#208;&#160;&#209;&#148;&#208;&#160;&#209;&#149;&#208;&#160;&#209;&#151;&#208;&#160;&#209;&#145;&#208;&#161;&#208;&#143; 1">
<g id="Group">
<g id="Vector">
<use xlink:href="#path0_fill" transform="translate(75.5 17.7)" fill="#E01524"/>
</g>
</g>
</g>
<g id="&#208;&#160;&#194;&#164;&#208;&#160;&#209;&#145;&#208;&#160;&#209;&#150;&#208;&#161;&#209;&#147;&#208;&#161;&#208;&#130;&#208;&#160;&#194;&#176; 89 1">
<g id="Group">
<g id="Vector">
<use xlink:href="#path1_fill" transform="translate(33 16)" fill="#FFFFFF"/>
</g>
</g>
</g>
</g>
</g>
<defs>
<path id="path0_fill" d="M 45.1 7.1L 47 7.1L 47 5.4L 45.1 5.4L 45.1 7.1ZM 51.5 0.0999999C 51.4 0.0999999 51.3 0.2 51.2 0.2C 51 0.3 50.8 0.4 50.6 0.6C 50.5 0.8 50.3 1 50.2 1.2L 50.2 0.2L 48.3 0.2L 48.3 7.2L 50.2 7.2L 50.2 1.6L 52.3 1.6L 52.3 0.0999999C 52.2 0.0999999 52 4.76837e-08 51.9 4.76837e-08C 51.8 4.76837e-08 51.6 -5.21541e-08 51.5 0.0999999ZM 57.9 0.0999999L 57.9 5.6L 56.1 5.6C 55.9 5.6 55.7 5.5 55.5 5.4C 55.3 5.2 55.2 5 55.2 4.8L 55.2 0.0999999L 53.3 0.0999999L 53.3 4.9C 53.3 5.4 53.5 5.9 53.8 6.3C 54.1 6.7 54.4 6.9 54.9 7C 55.2 7.1 55.6 7.1 56.3 7.1L 59.9 7.1L 59.9 0.0999999C 59.8 0.0999999 57.9 0.0999999 57.9 0.0999999ZM 0 27.3L 0.0999985 39.1L 2.7 36.6L 5.1 42.1L 7 41.3L 4.7 35.8L 8.6 35.6L 0 27.3Z"/>
<path id="path1_fill" d="M 21.3 0L 9.5 0C 8.1 0 6.7 0.3 5.5 0.9C 4.2 1.5 3.1 2.3 2.2 3.3C 1.9 3.7 1.6 4.1 1.2 4.5C 0.9 5 0.7 5.6 0.5 6.2C 0.2 7.3 0 8.5 0 9.8L 0 22C 0 22.8 0.1 23.5 0.2 24C 0.3 24.5 0.5 25 0.6 25.3C 1.2 26.6 1.9 27.7 2.8 28.6C 3.7 29.5 4.7 30.2 5.8 30.6C 6.3 30.8 6.9 31 7.6 31.1C 8.3 31.3 9.1 31.3 9.9 31.3L 21.2 31.3C 21.5 31.3 21.6 31.2 21.6 30.9L 21.6 26.1C 21.6 25.8 21.5 25.7 21.2 25.7L 9.8 25.7C 8.8 25.6 8 25.3 7.4 24.7C 6.8 24.1 6.5 23.3 6.4 22.3L 6.4 11.2C 6.4 9.7 6.7 8.5 7.2 7.5C 7.8 6.6 8.6 6 9.8 5.7L 21.2 5.7C 21.5 5.7 21.6 5.6 21.6 5.3L 21.6 0.4C 21.7 0.1 21.6 0 21.3 0ZM 30.3 0L 25.8 0C 25.5 0 25.4 0.1 25.4 0.4L 25.4 26.3L 25.4 26.4L 25.4 30.9C 25.4 31.2 25.5 31.3 25.8 31.3L 30.3 31.3C 30.6 31.3 30.7 31.2 30.7 30.9L 30.7 26.4L 30.7 26.3L 30.7 0.4C 30.7 0.1 30.6 0 30.3 0ZM 39.4 8.6L 34.9 8.6C 34.6 8.6 34.5 8.7 34.5 9L 34.5 30.9C 34.5 31.2 34.6 31.3 34.9 31.3L 39.4 31.3C 39.7 31.3 39.8 31.2 39.8 30.9L 39.8 9C 39.8 8.7 39.7 8.6 39.4 8.6ZM 39.4 0L 34.9 0C 34.6 0 34.5 0.1 34.5 0.4L 34.5 4.9C 34.5 5.2 34.6 5.3 34.9 5.3L 39.4 5.3C 39.7 5.3 39.8 5.2 39.8 4.9L 39.8 0.4C 39.8 0.1 39.7 0 39.4 0ZM 61.7 8.6L 54.2 8.6C 52.3 8.6 50.6 8.8 49.2 9.3C 47.8 9.8 46.6 10.4 45.7 11.2C 44.8 12 44.1 13 43.7 14.2C 43.3 15.4 43.1 16.7 43.1 18.2L 43.1 21.9C 43.1 23 43.3 24.1 43.8 25.2C 44.3 26.3 44.9 27.3 45.8 28.3C 46.7 29.3 47.8 30 49 30.5C 50.3 31.1 51.7 31.4 53.3 31.4L 61.6 31.4C 61.9 31.4 62 31.3 62 31L 62 26.5C 62 26.2 61.9 26.1 61.6 26.1L 53.2 26.1C 51.4 26.1 50.1 25.6 49.3 24.7C 48.5 23.8 48.1 22.6 48.1 21.1L 48.1 19.2C 48.1 17.7 48.5 16.5 49.4 15.4C 50.2 14.4 51.5 13.9 53.2 13.9L 61.6 13.9C 61.9 13.9 62 13.8 62 13.5L 62 9C 62.1 8.7 62 8.6 61.7 8.6ZM 86.2 31.1L 77.4 19.3C 77.3 19.2 77.3 19.2 77.2 19C 77.1 18.8 77.1 18.8 77.1 18.7C 77.1 18.6 77.1 18.6 77.2 18.5C 77.3 18.4 77.3 18.3 77.4 18.3L 85.7 9C 85.8 8.9 85.9 8.8 85.9 8.7C 85.9 8.6 85.8 8.6 85.7 8.6L 80 8.6C 79.7 8.6 79.4 8.7 79.2 9L 72 17C 71.8 17.3 71.6 17.6 71.4 17.9C 71.3 18.2 71.2 18.5 71.2 18.8C 71.2 19.1 71.3 19.4 71.4 19.8C 71.5 20.1 71.7 20.4 71.9 20.7L 79.6 31C 79.8 31.3 80.1 31.4 80.4 31.4L 86.1 31.4C 86.3 31.4 86.4 31.3 86.2 31.1ZM 69.9 0L 65.4 0C 65.1 0 65 0.1 65 0.4L 65 26.3L 65 26.4L 65 30.9C 65 31.2 65.1 31.3 65.4 31.3L 69.9 31.3C 70.2 31.3 70.3 31.2 70.3 30.9L 70.3 0.4C 70.3 0.1 70.2 0 69.9 0Z"/>
</defs>
</svg>
