<?xml version="1.0" encoding="utf-8"?>
<!-- Generator: Adobe Illustrator 16.0.0, SVG Export Plug-In . SVG Version: 6.00 Build 0)  -->
<!DOCTYPE svg PUBLIC "-//W3C//DTD SVG 1.1//EN" "http://www.w3.org/Graphics/SVG/1.1/DTD/svg11.dtd">
<svg version="1.1" id="Layer_1" xmlns="http://www.w3.org/2000/svg" xmlns:xlink="http://www.w3.org/1999/xlink" x="0px" y="0px"
	 width="151.41px" height="60.404px" viewBox="0 0 151.41 60.404" enable-background="new 0 0 151.41 60.404" xml:space="preserve">
<g>
	<g>
		<g>
			<g>
				<g>
					<path fill="#C6C5C5" d="M34.173,58.087l-29.73,2.317L0,15.523l2.363-0.186c1.302-0.102,2.255-1.304,2.12-2.672l-0.229-2.312
						C4.118,8.984,5.129,7.777,6.5,7.671l16.4-1.274c1.37-0.108,2.604,0.923,2.739,2.292L25.867,11l0.247,2.489l8.405-0.655
						l31.084,0.477l3.104,37.553L63.05,55.84L34.173,58.087z"/>
				</g>
			</g>
		</g>
		<g>
			<g>
				<g>
					<polygon fill="#066BC6" points="45.646,0 8.575,19.285 4.595,60.404 41.514,57.506 62.273,55.876 75.544,54.834 79.52,13.717 
											"/>
				</g>
			</g>
		</g>
	</g>
	<g>
		<g>
			<path fill="#FFFFFF" d="M28.319,43.704l-4.227-6.888h-3.439v6.888h-4.127V24.319h9.068c4.039,0,6.51,2.646,6.51,6.249
				c0,3.429-1.733,5.26-3.825,5.755l4.777,7.381H28.319z M27.891,30.567c0-1.627-1.251-2.615-2.906-2.615h-4.331v5.23h4.331
				C26.64,33.183,27.891,32.196,27.891,30.567z"/>
		</g>
		<g>
			<path fill="#FFFFFF" d="M35.634,43.704V24.319h13.719v3.634h-9.592v4.097h8.554v3.633h-8.554v4.389h9.592v3.633H35.634z"/>
		</g>
		<g>
			<path fill="#FFFFFF" d="M51.65,34.026c0-6.132,4.65-10.027,10.318-10.027c4.04,0,6.569,2.034,8.022,4.332l-3.431,1.859
				c-0.87-1.366-2.526-2.529-4.591-2.529c-3.518,0-6.075,2.703-6.075,6.365s2.558,6.365,6.075,6.365
				c1.715,0,3.344-0.757,4.127-1.483v-2.069H60.98v-3.654h9.241v7.236c-1.976,2.208-4.736,3.662-8.253,3.662
				C56.301,44.082,51.65,40.13,51.65,34.026z"/>
		</g>
	</g>
	<g>
		<g>
			<path d="M80.278,41.669c0-1.277,1.076-2.354,2.354-2.354c1.281,0,2.354,1.075,2.354,2.354c0,1.279-1.073,2.354-2.354,2.354
				C81.354,44.024,80.278,42.949,80.278,41.669z"/>
		</g>
		<g>
			<path d="M100.065,43.704l-4.642-6.888H92.4v6.888h-4.127V24.319h9.068c4.039,0,6.511,2.646,6.511,6.249
				c0,3.429-2.151,5.26-4.243,5.755l5.193,7.381H100.065z M99.639,30.567c0-1.627-1.252-2.615-2.908-2.615H92.4v5.23h4.33
				C98.387,33.183,99.639,32.196,99.639,30.567z"/>
		</g>
		<g>
			<path d="M106.964,35.973V24.319h4.186v11.508c0,2.705,1.152,4.564,4.146,4.564c2.992,0,4.115-1.859,4.115-4.564V24.319h4.217
				v11.625c0,4.825-2.435,8.11-8.332,8.11C109.394,44.052,106.964,40.74,106.964,35.973z"/>
		</g>
	</g>
</g>
</svg>
