<svg xmlns="http://www.w3.org/2000/svg" width="38" height="34" focusable="false"><g id="tuiIconLogoSimpleFill" xmlns="http://www.w3.org/2000/svg" transform="translate(-19,-17)"><svg x="50%" y="50%">
<svg width="38" height="34" viewBox="0 0 38 34" xmlns="http://www.w3.org/2000/svg">
<path d="M37.5071 15.9031L38 14.3219L36.3684 14.3736C36.2308 14.3736 35.2289 14.3445 34.2566 13.6388C34.3295 13.6449 34.4014 13.6557 34.4761 13.6557C35.4765 13.6557 36.4455 13.0522 36.8332 12.1884L37.5348 10.6288C36.6542 10.6405 35.8497 10.529 35.8497 10.529C35.8431 10.5285 35.2087 10.4461 34.4756 9.69525C33.9498 9.15765 33.2989 8.87284 32.5941 8.87284C32.2853 8.87284 32.0095 8.92886 31.7717 9.00418C31.8093 8.87755 31.8436 8.7495 31.8647 8.61722C32.0884 7.1574 31.1514 6.04453 31.1509 6.04547L29.9235 4.52304L29.1627 6.31145C29.1604 6.3171 28.9677 6.73654 28.6246 6.94085C28.5213 6.41501 28.2661 5.82421 27.7219 5.2593C26.6952 4.19492 25.4456 4.03533 24.792 4.03533C24.4889 4.03533 24.2723 4.06876 24.2201 4.07723L22.7389 4.3691C22.8244 4.03769 23.0068 3.4596 23.3395 2.94035L24.1567 1.66507L22.1003 1.89904L21.4448 0.505594L20.1764 1.16089L19.0031 0L17.8334 1.16089L16.5618 0.505594L15.9082 1.89904L13.8523 1.66413L14.6709 2.94082C15.004 3.4596 15.1854 4.03628 15.27 4.36675L13.8565 4.08759L13.8081 4.08006C13.7371 4.06876 13.5224 4.03533 13.2179 4.03533C12.5642 4.03533 11.3152 4.19492 10.2908 5.25883C9.74565 5.82327 9.49001 6.41501 9.38569 6.94085C9.04453 6.73843 8.85374 6.32557 8.85374 6.32557L8.09154 4.52681L6.84531 6.05865C6.69259 6.2559 5.94166 7.30239 6.1456 8.6191C6.16675 8.75044 6.20105 8.87755 6.23771 9.00418C6.00134 8.92839 5.72549 8.87284 5.41723 8.87284C4.71188 8.87284 4.06104 9.15765 3.53426 9.69525C2.80307 10.4428 2.17291 10.5276 2.17807 10.5276C2.17807 10.5276 1.51079 10.6481 0.478848 10.6288L1.17668 12.1884C1.5653 13.0522 2.53474 13.6557 3.53332 13.6557C3.60851 13.6557 3.68041 13.6449 3.75418 13.6388C2.78427 14.3445 1.7824 14.3736 1.66116 14.3741L0 14.3219L0.503283 15.9027C0.75704 16.7175 1.60289 18.0672 3.22317 18.2127C3.04696 18.9527 2.65645 19.7826 1.79838 20.1395L0.560143 20.6503L1.23542 21.8281C1.61605 22.4631 2.51078 23.206 3.78379 23.206C4.05916 23.2051 4.32513 23.1773 4.58171 23.1227C4.64703 23.4127 4.7288 23.7036 4.8256 23.9922C5.20435 25.1229 4.87776 25.911 4.87447 25.9199L4.26311 27.2023L5.62728 27.5624C5.6442 27.5676 6.05632 27.6815 6.57229 27.6815C6.80584 27.6815 7.03046 27.657 7.23957 27.6066C7.39794 27.5695 7.55066 27.5205 7.69727 27.4607C7.87396 27.778 8.08825 28.0675 8.33824 28.3269C9.21229 29.2256 10.4515 29.6808 12.0201 29.6808H12.0252L13.1455 29.6662L10.8312 30.6303L12.5882 31.481C13.2268 31.7926 13.9834 32.1612 14.7545 32.4432L14.5351 33.0444L15.1403 33.3212C15.1944 33.3456 16.3593 33.8672 18.2949 33.9783C18.2949 33.9783 18.762 34 19.0195 34C19.2765 34 19.7385 33.9769 19.7385 33.9769C21.6614 33.863 22.8169 33.3456 22.871 33.3212L23.4781 33.0439L23.2568 32.4418C24.049 32.1513 24.8343 31.7681 25.4461 31.4687L27.1707 30.6294L24.8639 29.6662L25.9889 29.6808C27.5598 29.6808 28.799 29.2251 29.6716 28.3255C29.9207 28.0685 30.1345 27.7794 30.3121 27.4607C30.4592 27.5205 30.6129 27.5695 30.7717 27.6076C30.9804 27.657 31.2045 27.6815 31.4381 27.6815C31.9451 27.6815 32.3619 27.569 32.3727 27.5652L33.743 27.2023L33.1462 25.9435C33.1321 25.911 32.8055 25.1229 33.1843 23.9912C33.2806 23.7026 33.3619 23.4122 33.4282 23.1227C33.6852 23.1773 33.9535 23.2051 34.2313 23.206C35.8534 23.206 36.6311 22.063 36.7815 21.8149L37.4497 20.6493L36.2124 20.1404C35.352 19.7826 34.962 18.9532 34.7876 18.2136C36.3868 18.0743 37.2444 16.7232 37.5071 15.9031Z" fill="#FFFFFE"/>
<path d="M24.6424 20.895H13.3672V25.1436C13.3672 26.8816 14.6223 27.9691 16.4748 27.9691C18.0217 27.9691 18.4301 28.0298 19.0057 28.6018C19.4024 28.2054 19.7304 28.0576 20.4042 28.0025L20.4202 27.9366L20.7755 26.836C20.7557 26.811 20.1744 26.1501 20.1744 26.1501C19.9442 26.2268 19.7506 26.2395 19.4259 26.2395C19.0917 26.2395 18.7158 26.2005 18.3065 26.1237C18.2656 26.1143 18.2271 26.1101 18.189 26.1101C18.1387 26.1101 18.1355 26.1143 18.1223 26.1388L18.0518 26.2555L17.9226 26.4697L17.6792 26.4132L16.5969 26.1581L16.4484 26.4034L16.4705 26.4297L16.6021 26.5752L16.5438 26.7644C16.464 27.012 16.206 27.3011 16.127 27.3811L15.8568 27.6716L15.6101 27.3595L15.425 27.1269C15.2304 26.9085 15.1853 26.5752 15.2948 26.2249C15.2924 26.2268 15.2887 26.2287 15.284 26.2292L14.979 26.3558L14.8418 26.0569L14.7455 25.845C14.5796 25.4722 14.6407 24.9275 15.088 24.598L15.9588 24.1051L16.7877 24.2685C16.8075 24.1889 16.8371 23.9036 16.861 23.8311C16.8446 23.8293 16.83 23.8255 16.8136 23.8255L16.3361 24.0044L15.8751 23.6857C15.8751 23.6857 15.6952 23.512 15.8587 23.3383L16.3042 22.6613L15.174 21.2401L16.9108 21.9547L17.0269 21.8116L17.2609 21.5301L17.5274 21.7838C17.6026 21.8563 17.6458 21.9457 17.6669 22.0352C18.1453 22.2221 19.0034 22.7729 19.0791 23.6687L18.8107 23.7761V23.7826C18.8723 23.8556 18.923 23.8857 18.939 23.8886L20.1787 24.0105C20.2106 24.0053 20.2492 23.9912 20.2933 23.9785C20.4479 23.9258 20.6787 23.8495 20.9531 23.8495C21.1768 23.8495 21.3925 23.9008 21.6002 23.9983C21.6768 23.9691 21.7708 23.9479 21.8798 23.9408L21.9395 23.9394C22.603 23.9394 22.9333 24.4361 23.1979 24.8329C23.2421 24.9016 23.2862 24.9661 23.3323 25.0302C23.5635 25.3578 23.8666 25.837 23.8788 25.8577L24.0156 26.0715L23.8483 26.2668C23.7195 26.4161 23.5254 26.5917 23.1932 26.5917C23.1246 26.5917 23.0494 26.5841 22.9686 26.5686C22.8981 26.5554 22.8332 26.5342 22.7712 26.5079C22.7623 26.5738 22.7482 26.6519 22.736 26.7192L22.5189 27.8556C23.8191 27.5355 24.6448 26.5521 24.6448 25.1436L24.6424 20.895Z" fill="#FFE52B"/>
<path d="M13.3674 20.5528H22.137C21.6991 20.0994 21.7056 19.5256 21.817 19.1527C21.6892 19.0915 21.5839 19.0181 21.4904 18.9371C21.1474 19.1904 20.1013 19.9535 19.8278 20.1446L19.7691 20.1842L16.3274 19.5609H16.2579C16.1752 19.5609 16.0544 19.5576 15.9219 19.5416C15.8847 19.6979 15.7508 19.8038 15.5976 19.8038C15.5798 19.8038 15.5605 19.8024 15.5426 19.7986C15.4529 19.7831 15.3744 19.7374 15.3223 19.6621C15.2687 19.5877 15.2475 19.4997 15.2621 19.4088L15.2748 19.3345C14.9205 19.084 14.5925 18.5243 14.7377 17.9344L14.7518 17.8723L14.8021 17.836C14.8091 17.8309 14.8683 17.7899 14.9576 17.7395L14.7076 17.7009C14.6141 17.6845 14.5511 17.5969 14.5657 17.5046C14.5817 17.4109 14.6695 17.3441 14.7616 17.362L15.3575 17.4561L15.412 15.3547L16.2983 14.415L16.8518 15.582L16.2677 17.604L16.7945 17.6868C16.8871 17.7014 16.9505 17.7885 16.9364 17.8841C16.9228 17.9688 16.8504 18.0258 16.7677 18.0258C16.7588 18.0258 16.7494 18.0258 16.7405 18.0248L16.3124 17.9556C16.318 17.9688 16.3265 17.9763 16.3316 17.9895C16.3772 18.0841 16.4783 18.151 16.5375 18.1806L19.161 18.2225C19.2724 18.1143 19.5473 17.844 19.8311 17.5583C19.185 17.3126 18.9505 16.7556 18.9115 16.3852C18.5506 16.2312 18.3015 16.0006 18.1634 15.7007C17.9952 15.3293 18.0548 14.9569 18.0999 14.7761C17.7499 14.6485 17.3824 14.415 17.0064 14.0413H13.054C13.2236 14.4974 13.3674 14.9912 13.3674 15.4822V20.5528Z" fill="#FFE52B"/>
<path d="M22.2042 31.6475L21.6891 30.2282C22.3019 30.0413 23.3555 29.6393 23.8277 29.3719L23.5129 30.4047L24.5796 30.7602C23.9344 31.0845 23.152 31.3872 22.2042 31.6475ZM19.0064 32.9233C17.7649 32.9233 16.3485 32.6371 15.9308 32.4883L16.5651 30.7696C17.091 30.9235 18.1854 31.0869 18.9796 31.0817H19.0299C19.824 31.0869 20.9171 30.9235 21.4457 30.7696L22.0787 32.4883C21.6614 32.6371 20.2446 32.9233 19.0064 32.9233ZM13.4298 30.7602L14.4984 30.4047L14.1822 29.3719C14.6535 29.6393 15.709 30.0413 16.3203 30.2282L15.8048 31.6475C14.8603 31.3872 14.0746 31.0845 13.4298 30.7602ZM24.6275 30.4448L23.9781 30.1952L24.1576 29.5225L24.355 28.79C24.355 28.79 23.2042 29.4157 21.582 29.885C21.122 30.0168 20.7737 30.0776 20.7737 30.0776V30.5766C20.7737 30.5766 19.9063 30.7272 19.0299 30.7272H18.9796C18.1023 30.7272 17.2362 30.5766 17.2362 30.5766V30.0776C17.2362 30.0776 16.887 30.0168 16.4275 29.885C14.8058 29.4157 13.6559 28.79 13.6559 28.79L13.8504 29.5225L14.0337 30.1952L13.3819 30.4448L12.6592 30.715C13.4872 31.1161 14.6352 31.6988 15.6855 31.987L15.4378 32.6653C15.4378 32.6653 16.77 33.2731 18.9895 33.2787V33.2801H19.0195V33.2787C21.2413 33.2731 22.5726 32.6653 22.5726 32.6653L22.3235 31.987C23.3743 31.6988 24.5242 31.1161 25.3484 30.715L24.6275 30.4448Z" fill="#1A1919"/>
<path d="M16.2925 3.08847L16.5876 3.11954L16.7154 2.8498L17.0871 2.05281L17.7779 2.41058L18.0453 2.54757L19.0035 1.5957L19.7502 2.3362L19.964 2.54757L20.2318 2.41058L20.9184 2.05281L21.2957 2.8498L21.4207 3.11954L21.7158 3.08847L21.9983 3.05458C21.869 3.34598 21.7736 3.62326 21.7055 3.85251C20.9602 3.43636 19.9917 3.19957 19.0035 3.19957C18.0199 3.19957 17.0524 3.43636 16.3042 3.85251C16.2352 3.62326 16.1407 3.34598 16.0115 3.05458L16.2925 3.08847ZM19.0035 3.61525C20.3258 3.61525 21.3836 4.05447 21.9682 4.52193C21.9682 4.52193 22.1416 3.47497 22.7342 2.55134L21.6693 2.6728L21.112 1.48696L20.042 2.03963L19.0035 1.01196L17.9682 2.03963L16.8959 1.48696L16.3395 2.6728L15.2747 2.55134C15.8677 3.47497 16.0406 4.52193 16.0406 4.52193C16.629 4.05447 17.6835 3.61525 19.0035 3.61525Z" fill="#1A1919"/>
<path d="M35.7614 21.226C35.7614 21.226 35.3014 22.0287 34.245 22.0287H34.2318C32.964 22.0211 32.4527 21.2463 32.4527 21.2463C32.4527 21.2463 32.526 22.2542 32.0697 23.6147C31.5195 25.2543 32.0744 26.4255 32.0744 26.4255C32.0744 26.4255 31.7779 26.506 31.4372 26.506C31.3071 26.506 31.1708 26.4929 31.0425 26.4594C29.9833 26.2076 29.7192 25.2416 29.7192 25.2416C29.7192 25.2416 29.8165 28.5035 26.02 28.5035H25.9904C25.9904 28.5035 26.325 28.0478 26.4237 26.7362C26.6041 24.3156 28.2399 23.9833 28.2399 23.9833C28.2399 23.9833 27.3668 23.8736 26.9885 23.5342C26.3969 22.9966 26.4387 22.3761 26.4387 22.3761C27.7742 22.3573 28.6497 21.9016 29.3165 21.1291C30.0387 20.292 30.1576 19.3905 30.1576 19.3905C30.1576 19.3905 29.4391 20.043 28.0505 20.043C27.9283 20.043 27.7977 20.0369 27.6638 20.0242C27.0064 19.9705 26.5524 19.5525 26.5524 19.5525C27.9984 18.6232 29.0124 17.0029 28.113 14.5629C27.3922 12.6069 25.661 11.1462 23.9176 10.0455C23.3377 9.68305 23.0144 9.27914 23.0144 8.9322C23.0144 8.11496 24.1746 8.0886 24.6497 7.54016C25.1991 6.90182 24.8546 5.86709 24.379 5.24381C24.379 5.24381 24.5393 5.21133 24.7921 5.21133C25.2935 5.21133 26.1619 5.33749 26.8757 6.07893C27.8231 7.06093 27.4302 8.13096 27.4302 8.13096L27.684 8.1804C27.8358 8.21241 27.9871 8.21853 28.144 8.22653C28.1779 8.22653 28.2126 8.22841 28.246 8.22841C29.6229 8.22841 30.2385 6.78648 30.2385 6.78648C30.2385 6.78648 31.7018 8.58995 29.5467 10.0036C29.176 10.2451 29.0124 10.4697 29.0552 10.7084L29.089 10.8651L29.2422 10.8924C30.8042 11.3166 31.5946 12.3965 32.5599 13.6233C34.026 15.4898 36.0993 15.5501 36.3549 15.5501H36.3827C36.3827 15.5501 35.9099 17.0466 34.5152 17.0466C34.4917 17.0466 34.472 17.0466 34.4489 17.0452C33.8084 17.0222 33.4795 16.7764 33.4795 16.7764C33.4795 16.7764 33.23 20.1734 35.7614 21.226ZM34.5152 17.5047C36.2248 17.5047 36.7971 15.7624 36.8206 15.6876L37.0119 15.0732L36.3709 15.0935H36.3686C36.1425 15.0935 34.2558 15.0431 32.9184 13.3404L32.792 13.1822C31.918 12.0693 31.0895 11.0101 29.6074 10.5271C29.6501 10.488 29.7117 10.441 29.7958 10.3859C30.5824 9.86806 31.0397 9.23866 31.1543 8.50804C31.3226 7.40929 30.6224 6.53274 30.5918 6.49697L30.1158 5.90711L29.8184 6.60665C29.7981 6.65043 29.2986 7.77037 28.246 7.77037H28.1675C28.0956 7.7666 28.0266 7.76377 27.9594 7.75813C27.996 7.25865 27.9053 6.48567 27.2051 5.75976C26.3635 4.88697 25.3316 4.7561 24.7921 4.7561C24.5036 4.7561 24.3118 4.79188 24.2907 4.79376L23.5722 4.93687L24.0153 5.5225C24.3635 5.97395 24.6788 6.80719 24.3048 7.24217C24.185 7.38105 23.9392 7.49309 23.7038 7.60607C23.2198 7.82874 22.5581 8.14085 22.5581 8.9322C22.5581 9.44438 22.9552 9.98057 23.6746 10.4363C25.8034 11.7775 27.1168 13.177 27.684 14.722C28.5618 17.0984 27.4166 18.4537 26.3048 19.1683L25.8057 19.4894L26.2427 19.8914C26.3015 19.9432 26.8348 20.4144 27.6243 20.4822C27.7737 20.4921 27.9166 20.5001 28.0505 20.5001C28.5557 20.5001 28.9866 20.4206 29.3367 20.3137C29.2408 20.4822 29.1215 20.655 28.973 20.8282C28.3376 21.5659 27.5557 21.9016 26.4312 21.9199L26.0134 21.9265L25.9815 22.3464C25.9772 22.4312 25.9462 23.2098 26.6812 23.8717C26.794 23.9743 26.9298 24.0586 27.0726 24.1273C26.5736 24.5774 26.067 25.3612 25.9688 26.7033C25.8856 27.8237 25.6192 28.2384 25.6159 28.2427L25.1544 28.9488L25.989 28.9601C27.3677 28.9601 28.4236 28.5793 29.1553 27.8237C29.5876 27.377 29.8353 26.8723 29.9809 26.4255C30.2211 26.6303 30.5308 26.8102 30.9349 26.9057C31.0881 26.9415 31.2554 26.9613 31.4372 26.9613C31.8268 26.9613 32.1529 26.8784 32.1891 26.8695L32.722 26.7278L32.4866 26.2297C32.4692 26.1897 32.0246 25.1893 32.503 23.7634C32.7088 23.1463 32.8141 22.5941 32.8653 22.1638C33.2008 22.3389 33.6505 22.4834 34.2314 22.4853C35.5504 22.4853 36.1322 21.4981 36.158 21.4567L36.4179 21.0034L35.9362 20.8047C34.3644 20.1508 34.0161 18.3949 33.9466 17.4444C34.0885 17.4722 34.2511 17.4972 34.4344 17.5023L34.5152 17.5047Z" fill="#1A1919"/>
<path d="M32.5937 10.0499C32.9123 10.0499 33.2836 10.1586 33.6346 10.522C34.7365 11.6425 35.7614 11.7051 35.7614 11.7051C35.5754 12.1184 35.0354 12.4809 34.4762 12.4809C34.347 12.4809 34.2168 12.4611 34.0885 12.4164C33.3301 12.1603 33.0589 11.0215 31.7277 10.3116C31.7277 10.3116 32.0989 10.0499 32.5937 10.0499ZM31.5106 10.7165C32.1482 11.0568 32.5199 11.513 32.8456 11.9174C33.1661 12.3123 33.4692 12.6918 33.9452 12.8499C34.1139 12.9078 34.2934 12.9356 34.4762 12.9356C35.1891 12.9356 35.9062 12.4983 36.1778 11.8924L36.4513 11.2856L35.7896 11.2461C35.7586 11.2456 34.9076 11.1675 33.9617 10.1991C33.5721 9.80132 33.1008 9.59277 32.5937 9.59277C31.9739 9.59277 31.5143 9.903 31.4636 9.93501L30.856 10.3639L31.5106 10.7165Z" fill="#1A1919"/>
<path d="M31.8098 16.7666V16.7901C31.4263 13.6878 29.1777 11.4475 26.6754 10.086C26.4442 9.96175 26.2299 9.8563 26.0232 9.75556C26.7844 9.87419 28.0114 9.88831 28.9588 9.06543C28.9588 9.06543 27.5095 10.1331 24.542 9.16335C25.3629 9.69719 26.9593 10.4509 28.4174 11.6715C32.0602 14.8788 29.4541 18.007 29.4541 18.007C30.7632 16.638 30.8178 15.1716 30.4324 13.974C31.1218 15.1241 31.5626 16.5189 31.494 18.24C31.3939 20.7049 30.041 22.837 28.6181 24.5496C27.9343 25.3809 27.7816 26.4025 27.7816 26.4025C27.7816 26.4025 28.0575 25.501 28.8488 24.5736C30.3742 22.7847 31.6782 20.9271 31.8492 18.2494C32.0067 18.7357 32.6566 20.0859 33.6871 20.5948C33.6871 20.5948 32.392 19.8128 31.8098 16.7666Z" fill="#1A1919"/>
<path d="M11.9895 28.5035C8.19259 28.5035 8.28939 25.2416 8.28939 25.2416C8.28939 25.2416 8.02435 26.2076 6.96657 26.4594C6.83969 26.4929 6.70435 26.506 6.57231 26.506C6.23161 26.506 5.9365 26.4255 5.9365 26.4255C5.9365 26.4255 6.48866 25.2543 5.93838 23.6147C5.4835 22.2546 5.55728 21.2463 5.55728 21.2463C5.55728 21.2463 5.04695 22.0211 3.7777 22.0287H3.76501C2.70957 22.0287 2.24858 21.226 2.24858 21.226C4.77815 20.1734 4.53051 16.7764 4.53051 16.7764C4.53051 16.7764 4.20156 17.0222 3.56012 17.0452C3.53663 17.0466 3.51595 17.0466 3.49387 17.0466C2.09821 17.0466 1.62547 15.5501 1.62547 15.5501H1.65366C1.91165 15.5501 3.98258 15.4894 5.44779 13.6233C6.41347 12.396 7.20482 11.3171 8.76448 10.8924L8.92096 10.8647L8.95432 10.7084C8.99756 10.4697 8.8345 10.2451 8.46373 10.0036C6.30915 8.58995 7.77248 6.78695 7.77248 6.78695C7.77248 6.78695 8.38431 8.22841 9.76493 8.22841C9.7983 8.22841 9.82978 8.227 9.8655 8.227C10.0206 8.21853 10.1738 8.21241 10.3251 8.1804L10.5788 8.13096C10.5788 8.13096 10.1846 7.06093 11.1347 6.07893C11.8486 5.33749 12.716 5.21133 13.2174 5.21133C13.4717 5.21133 13.6295 5.24381 13.6295 5.24381C13.1549 5.86709 12.8109 6.90182 13.3598 7.54016C13.8349 8.0886 14.9937 8.11496 14.9937 8.9322C14.9937 9.27914 14.6709 9.68305 14.0919 10.0455C12.3471 11.1462 10.6164 12.6069 9.89604 14.5629C8.99756 17.0033 10.0116 18.6232 11.4595 19.5525C11.4595 19.5525 11.0041 19.9705 10.3458 20.0242C10.2118 20.0369 10.0821 20.043 9.9576 20.043C8.5704 20.043 7.85236 19.3905 7.85236 19.3905C7.85236 19.3905 7.97172 20.292 8.68976 21.1295C9.3608 21.9016 10.2349 22.3573 11.5708 22.3761C11.5708 22.3761 11.6131 22.9966 11.0224 23.5337C10.6432 23.8736 9.76963 23.9833 9.76963 23.9833C9.76963 23.9833 11.4068 24.3156 11.5868 26.7358C11.6846 28.0478 12.0168 28.5035 12.0168 28.5035H11.9895ZM12.3932 28.2427C12.3918 28.2384 12.1267 27.8237 12.0417 26.7033C11.9425 25.3607 11.436 24.5774 10.9355 24.1273C11.0802 24.0586 11.2142 23.9743 11.3269 23.8717C12.0619 23.2098 12.0309 22.4312 12.0257 22.3464L11.9975 21.9265L11.5765 21.9199C10.4552 21.9016 9.67189 21.5659 9.03656 20.8282C8.88901 20.655 8.76965 20.4822 8.67284 20.3137C9.02246 20.4206 9.45056 20.5001 9.9576 20.5001C10.0934 20.5001 10.2349 20.4921 10.3843 20.4822C11.1738 20.4144 11.708 19.9437 11.7673 19.8914L12.2043 19.4894L11.7057 19.1683C10.5896 18.4537 9.44915 17.0984 10.3251 14.722C10.8927 13.177 12.2043 11.7775 14.3363 10.4363C15.0558 9.98057 15.4495 9.44438 15.4495 8.9322C15.4495 8.14085 14.7898 7.82874 14.3058 7.60607C14.0699 7.49309 13.8241 7.38105 13.7047 7.24217C13.3297 6.80719 13.6455 5.97395 13.9937 5.5225L14.4402 4.93687L13.7174 4.79376C13.6963 4.79141 13.5069 4.7561 13.2174 4.7561C12.678 4.7561 11.6479 4.88697 10.8067 5.75976C10.1056 6.48614 10.0135 7.25865 10.0497 7.75813C9.98204 7.76377 9.9139 7.7666 9.842 7.77037H9.76493C8.7095 7.77037 8.21091 6.65043 8.19165 6.60665L7.89513 5.90711L7.4144 6.49697C7.38761 6.53274 6.68556 7.40929 6.85661 8.50804C6.96986 9.23866 7.42803 9.86806 8.2142 10.3859C8.29973 10.441 8.35941 10.488 8.40217 10.5271C6.91817 11.0101 6.09064 12.0693 5.21659 13.1822L5.09065 13.3404C3.75514 15.0431 1.86419 15.0935 1.63816 15.0935L0.993896 15.0732L1.18985 15.6876C1.21288 15.7624 1.78289 17.5047 3.49387 17.5047L3.5761 17.5023C3.75749 17.4972 3.91961 17.4722 4.06388 17.4444C3.99339 18.3944 3.64424 20.1508 2.07189 20.8047L1.59163 21.0034L1.8515 21.4567C1.8764 21.4981 2.46004 22.4853 3.78146 22.4853C4.35899 22.4834 4.80823 22.3389 5.14422 22.1643C5.19497 22.5941 5.3007 23.1463 5.507 23.7634C5.98538 25.1893 5.53989 26.1897 5.52298 26.2297L5.28661 26.7278L5.82043 26.8695C5.85568 26.8784 6.18415 26.9613 6.57231 26.9613C6.75369 26.9613 6.92145 26.9415 7.07324 26.9057C7.47784 26.8102 7.7908 26.6303 8.02858 26.4255C8.17332 26.8723 8.42191 27.377 8.85329 27.8237C9.58684 28.5793 10.6418 28.9601 12.0201 28.9601L12.8551 28.9488L12.3932 28.2427Z" fill="#1A1919"/>
<path d="M4.37373 10.5216C4.72617 10.1586 5.09693 10.0494 5.41742 10.0494C5.90942 10.0494 6.28207 10.3116 6.28207 10.3116C4.9522 11.0215 4.67776 12.1603 3.91837 12.4169C3.79291 12.4616 3.66274 12.4804 3.53304 12.4804C2.97431 12.4804 2.43343 12.1184 2.24875 11.7051C2.24875 11.7051 3.27318 11.6425 4.37373 10.5216ZM3.53304 12.9356C3.71631 12.9356 3.89535 12.9083 4.06452 12.8504C4.54149 12.6918 4.84458 12.3128 5.1646 11.9174C5.49213 11.5135 5.85961 11.0568 6.49776 10.7165L7.15424 10.3639L6.54475 9.93456C6.494 9.90255 6.03677 9.59326 5.41742 9.59326C4.90896 9.59326 4.43717 9.80134 4.04807 10.1991C3.10072 11.1679 2.25204 11.2456 2.2215 11.2466L1.56079 11.2856L1.83193 11.8929C2.10496 12.4983 2.82064 12.9356 3.53304 12.9356Z" fill="#1A1919"/>
<path d="M6.51634 18.24C6.44538 16.5189 6.88663 15.1241 7.57694 13.974C7.19208 15.1716 7.24424 16.638 8.55531 18.0075C8.55531 18.0075 5.9482 14.8788 9.59337 11.6715C11.0506 10.4509 12.6455 9.69719 13.4664 9.16335C10.4998 10.1331 9.05108 9.06543 9.05108 9.06543C9.9975 9.88831 11.2249 9.87419 11.9857 9.75556C11.7799 9.8563 11.5637 9.96128 11.3339 10.086C8.83069 11.4475 6.58353 13.6878 6.1982 16.7901V16.7666C5.61691 19.8128 4.32275 20.5948 4.32275 20.5948C5.35235 20.0859 6.00083 18.7357 6.15873 18.2494C6.33072 20.9271 7.63474 22.7847 9.15963 24.5736C9.95097 25.501 10.2296 26.4025 10.2296 26.4025C10.2296 26.4025 10.075 25.3809 9.38801 24.5496C7.96745 22.8374 6.61596 20.7049 6.51634 18.24Z" fill="#1A1919"/>
<path d="M18.1467 11.9634V12.5787C18.3591 12.3202 18.7675 12.3729 18.7675 12.3729V13.2598C18.7675 13.2598 18.7539 13.6962 18.5988 13.885H19.4846C19.3314 13.6962 19.3164 13.2598 19.3164 13.2598V12.3729C19.3164 12.3729 19.7261 12.3202 19.9366 12.5787V11.9634H18.1467Z" fill="#1A1919"/>
<path d="M17.7667 8.31501C18.0501 8.54003 18.2136 8.57769 18.2188 8.58098L18.3297 8.6323V8.05327L17.2888 7.61499C17.2888 7.61499 17.2977 7.95064 17.7667 8.31501Z" fill="#1A1919"/>
<path d="M20.2412 8.31501C20.7116 7.95064 20.7206 7.61499 20.7206 7.61499L19.6797 8.05327V8.6323L19.7896 8.58098C19.7953 8.57769 19.9583 8.54003 20.2412 8.31501Z" fill="#1A1919"/>
<path d="M19.0037 6.7722L16.4967 5.77985C16.71 5.27425 17.6931 4.84398 19.0037 4.84257C20.3162 4.84398 21.2993 5.27425 21.5117 5.77985L19.0037 6.7722ZM20.873 9.88062L19.1879 10.7703V7.16811L21.4745 6.39042L20.873 9.88062ZM21.9167 10.8367L22.6874 11.2849H22.6982L22.8918 11.3983C22.4567 11.5189 22.1244 11.7368 21.8453 12.023C21.835 12.032 21.826 12.0423 21.8148 12.0532C21.7508 12.1214 21.6874 12.1949 21.6263 12.2711C21.6155 12.2852 21.6033 12.3003 21.5906 12.3173C21.5314 12.394 21.4745 12.4731 21.421 12.5545C21.412 12.5686 21.4017 12.5828 21.3923 12.5964C21.3289 12.692 21.2673 12.7937 21.2067 12.8991C20.6578 13.8463 19.7824 14.4121 19.0037 14.4135C18.226 14.4121 17.3501 13.8463 16.8021 12.8991C16.7425 12.7965 16.6823 12.6972 16.6189 12.6007C16.6062 12.5828 16.5949 12.5639 16.5832 12.5484C16.5296 12.4698 16.4751 12.3926 16.4206 12.3201C16.4065 12.3003 16.3938 12.2852 16.3797 12.2683C16.32 12.1949 16.2589 12.1224 16.1969 12.0555C16.1837 12.0447 16.1748 12.032 16.1635 12.0212C15.883 11.7345 15.5517 11.5189 15.1161 11.3983L15.3115 11.2849H15.3205L16.0926 10.8367L16.8844 10.3824L18.9999 11.5363L19.0037 11.5316L19.0098 11.5363L21.1249 10.3824L21.9167 10.8367ZM24.9566 14.0412C24.7842 14.4973 24.6413 14.9912 24.6413 15.4822L24.6427 18.6522C23.9816 18.5411 23.9035 17.8279 23.9007 17.7969L23.8885 17.6519L23.7461 17.6392C23.459 17.6114 23.2682 17.4899 23.1075 17.3337C22.7833 17.0088 22.7828 16.4825 22.7833 16.4778C22.7786 16.5046 22.4266 16.9989 22.8354 17.5389C23.0074 17.7663 23.2569 17.9066 23.5793 17.9616C23.655 18.3571 23.9491 18.9159 24.6427 19.0011V20.5527H22.6916C21.7922 20.0509 22.1733 19.1687 22.1907 19.1305L22.2668 18.9634L22.0948 18.898C21.1202 18.536 21.389 17.5624 21.4017 17.5205L21.4412 17.3784L21.3082 17.3158C20.5042 16.942 20.6127 15.936 20.6235 15.8936C20.3759 16.0951 20.2871 16.5046 20.4572 16.9067C20.3651 17.0126 20.2415 17.1397 20.1057 17.2805C19.2725 17.0677 19.2467 16.3008 19.2467 16.2655L19.2448 16.1473L19.1353 16.105C18.8101 15.9845 18.5869 15.8032 18.4765 15.5603C18.3533 15.291 18.3966 15.0091 18.4304 14.873C18.5258 14.8951 18.6207 14.9097 18.7114 14.9177C18.8054 14.9271 18.9013 14.9333 18.9981 14.9333H19.0112C19.1076 14.9333 19.2029 14.9271 19.2969 14.9177C19.8162 14.8659 20.397 14.6428 21.0027 14.0412H24.9566ZM22.5187 27.856L22.7367 26.7187C22.748 26.6518 22.7621 26.5737 22.7715 26.5082C22.8335 26.5341 22.8979 26.5549 22.9684 26.568C23.0502 26.5836 23.1249 26.5916 23.193 26.5916C23.5257 26.5916 23.7198 26.4165 23.8486 26.2667L24.0154 26.0719L23.8791 25.8577C23.8669 25.8365 23.5643 25.3577 23.3321 25.0301C23.2861 24.9656 23.2428 24.9016 23.1987 24.8323C22.9341 24.436 22.6033 23.9393 21.9393 23.9393L21.8801 23.9407C21.7711 23.9478 21.6771 23.9695 21.6009 23.9982C21.3923 23.9007 21.1771 23.8499 20.9534 23.8499C20.6785 23.8499 20.4482 23.9257 20.2941 23.9779C20.2499 23.9906 20.2105 24.0048 20.1794 24.0109L18.9389 23.8885C18.9233 23.8852 18.8731 23.8555 18.811 23.7826V23.7764L19.0794 23.6686C19.0037 22.7728 18.1452 22.222 17.6668 22.0351C17.6461 21.9457 17.6029 21.8562 17.5277 21.7833L17.2612 21.53L17.0268 21.8115L16.9116 21.9546L15.1743 21.24L16.3045 22.6612L15.8585 23.3382C15.6955 23.5114 15.8755 23.6861 15.8755 23.6861L16.3364 24.0038L16.8139 23.8254C16.8303 23.8254 16.8449 23.8292 16.8613 23.831C16.8378 23.9035 16.8078 24.1888 16.788 24.2684L15.9591 24.1055L15.0883 24.5979C14.6405 24.9274 14.5794 25.4721 14.7458 25.8454L14.8421 26.0568L14.9793 26.3557L15.2843 26.2296C15.2885 26.2281 15.2928 26.2267 15.2956 26.2244C15.1861 26.5751 15.2307 26.9084 15.4257 27.1268L15.6109 27.3598L15.8571 27.6715L16.1273 27.3806C16.2063 27.3015 16.4647 27.012 16.5437 26.7643L16.6024 26.5751L16.4708 26.4296L16.4488 26.4033L16.5972 26.158L17.679 26.4136L17.9229 26.4696L18.0521 26.2554L18.1226 26.1392C18.1362 26.1142 18.1391 26.1105 18.1893 26.1105C18.2279 26.1105 18.2659 26.1142 18.3073 26.1236C18.7156 26.2008 19.092 26.239 19.4262 26.239C19.7504 26.239 19.9445 26.2267 20.1752 26.15C20.1752 26.15 20.756 26.8109 20.7762 26.8364L20.42 27.9361L20.4045 28.0024C19.7307 28.057 19.4027 28.2053 19.0061 28.6017C18.4304 28.0297 18.0225 27.9695 16.4751 27.9695C14.6226 27.9695 13.367 26.8816 13.367 25.1435V20.8949H24.6427L24.6451 25.1435C24.6451 26.552 23.8194 27.5354 22.5187 27.856ZM15.5738 25.4538L15.6325 25.6006C15.5935 25.7291 15.1537 25.9109 15.1537 25.9109L15.0587 25.7023C14.9577 25.4801 14.9793 25.1054 15.2857 24.8761L15.999 24.4412L16.7556 24.6017C16.7415 24.8422 16.8848 25.0221 16.8848 25.0221L16.0926 24.8695L15.6184 25.1977C15.5376 25.2541 15.5319 25.3577 15.5738 25.4538ZM22.3993 26.6547L22.1564 27.9252C22.0004 27.9474 21.8368 27.9587 21.6677 27.9652L21.9242 26.7441C22.0004 26.3811 21.0276 26.2682 20.5469 25.5545C20.3124 25.8186 19.8707 25.8977 19.4262 25.8977C19.0211 25.8977 18.6165 25.8332 18.3703 25.7842C18.3078 25.7743 18.2481 25.7673 18.1893 25.7673C18.0474 25.7673 17.9177 25.8115 17.828 25.9617L17.7575 26.0813L16.4318 25.7687L16.102 26.3157C16.0559 26.4047 16.0521 26.4791 16.1273 26.5619L16.2166 26.6598C16.1551 26.8533 15.8792 27.1461 15.8792 27.1461L15.6823 26.8994C15.5263 26.7248 15.5517 26.4047 15.7143 26.1086L16.2401 25.2193L17.3632 25.3817L17.1889 24.9835C16.9544 24.4562 17.312 23.7863 17.3501 23.4003C17.3369 23.5171 17.2298 23.5434 17.1057 23.5434C16.9925 23.5434 16.866 23.5218 16.7819 23.5218C16.7486 23.5218 16.7204 23.5251 16.7053 23.5364L16.4008 23.7214L16.1612 23.5086C16.132 23.4681 16.1231 23.3721 16.1931 23.3005L16.7486 22.6763L16.0926 21.908L17.0112 22.3708L17.2923 22.0299C17.3693 22.1057 17.3355 22.3034 17.3355 22.3034C17.6221 22.3105 18.4266 22.7558 18.4694 23.7962C18.4718 23.8282 18.4718 23.8635 18.4718 23.8979C18.4718 23.8979 18.4793 23.9111 18.4934 23.9323C18.5498 24.0109 18.7072 24.2114 18.906 24.2298L20.1762 24.3559H20.1813C20.3204 24.3559 20.5977 24.1921 20.9534 24.1921C21.1475 24.1921 21.3627 24.2416 21.5925 24.3865C21.5925 24.3865 21.7086 24.2947 21.8956 24.2853C21.9097 24.2834 21.9261 24.2834 21.9393 24.2834C22.5088 24.2834 22.7457 24.7994 23.0516 25.2278C23.2814 25.5545 23.5887 26.0384 23.5887 26.0384C23.4755 26.1731 23.3702 26.2484 23.193 26.2484C23.1446 26.2484 23.0896 26.2446 23.0295 26.2324C22.4181 26.1194 22.3303 24.8611 21.9816 24.7617C21.9628 24.7566 21.944 24.7547 21.9261 24.7547C21.8138 24.7547 21.7649 24.8545 21.7649 24.8545C21.9243 25.2838 21.8307 25.457 22.0027 25.7875C22.1305 26.0328 22.3585 26.2343 22.452 26.3298C22.452 26.3298 22.4266 26.5158 22.3993 26.6547ZM21.2302 27.9737C21.0591 27.9737 20.9017 27.9761 20.7603 27.9817L21.1324 26.8208C21.1902 26.6598 20.8965 26.4532 20.7748 26.2719C20.9581 26.3873 21.4332 26.6401 21.6616 26.7408C21.6385 26.7785 21.2302 27.9737 21.2302 27.9737ZM15.6978 17.5125L15.7509 15.4944L16.203 15.0152L16.4868 15.6107L15.9271 17.5478L15.6978 17.5125ZM16.023 18.1377C16.0968 18.2931 16.2298 18.3966 16.3233 18.4555C16.32 18.6014 16.3064 18.8269 16.2683 19.0265C16.2589 19.0712 16.2476 19.1122 16.2354 19.1531C16.2288 19.179 16.2213 19.2002 16.2161 19.2172C16.0775 19.2172 15.8068 19.2002 15.5846 19.1192C15.3388 19.0284 14.9723 18.5769 15.0569 18.0789C15.1631 18.0139 15.4093 17.875 15.64 17.875C15.8172 17.875 15.9384 17.9588 16.023 18.1377ZM21.2593 18.68C20.9116 18.9366 20.0159 19.5919 19.6907 19.8193L16.5634 19.2562C16.5709 19.2285 16.5785 19.2002 16.585 19.1729C16.6259 19.01 16.6682 18.7883 16.6701 18.527L19.2988 18.5694L19.3491 18.5181C19.389 18.4781 20.2217 17.6721 20.6461 17.2084C20.7471 17.3355 20.873 17.4565 21.0389 17.5624C20.9825 17.8713 21.0065 18.31 21.2593 18.68ZM17.0065 14.0412C17.3825 14.4154 17.7504 14.648 18.1 14.776C18.0549 14.9568 17.9953 15.3296 18.1635 15.7011C18.3012 16.0005 18.5507 16.2311 18.9116 16.3851C18.9511 16.7556 19.1851 17.3125 19.8312 17.5577C19.5479 17.844 19.2725 18.1137 19.1611 18.2224L16.538 18.181C16.4788 18.1514 16.3769 18.084 16.3317 17.9894C16.3266 17.9758 16.3181 17.9687 16.3125 17.9555L16.7406 18.0247C16.7495 18.0261 16.7589 18.0261 16.7678 18.0261C16.8505 18.0261 16.9224 17.9687 16.9361 17.8835C16.9502 17.7889 16.8872 17.7013 16.7946 17.6867L16.2683 17.6034L16.8519 15.582L16.2988 14.4154L15.4121 15.3546L15.3576 17.4565L14.7617 17.3614C14.6696 17.3435 14.5818 17.4109 14.5653 17.5045C14.5512 17.5968 14.6142 17.6848 14.7077 17.7013L14.9577 17.7394C14.8684 17.7903 14.8092 17.8308 14.8022 17.8364L14.7519 17.8717L14.7378 17.9343C14.593 18.5242 14.9206 19.0839 15.2749 19.3344L15.2622 19.4088C15.2476 19.4996 15.2683 19.5881 15.3228 19.662C15.3745 19.7378 15.453 19.783 15.5423 19.799C15.5606 19.8023 15.5803 19.8037 15.5973 19.8037C15.7509 19.8037 15.8849 19.6973 15.9224 19.542C16.054 19.5575 16.1748 19.5608 16.2575 19.5608H16.328L19.7692 20.1841L19.8279 20.145C20.1019 19.9529 21.1475 19.1898 21.49 18.9371C21.5845 19.0185 21.6898 19.0919 21.8171 19.1531C21.7057 19.5255 21.6992 20.0994 22.1376 20.5527H13.367V15.4822C13.367 14.9912 13.2237 14.4973 13.0541 14.0412H17.0065ZM16.5324 6.39042L18.8209 7.16811V10.7703L17.1358 9.88062L16.5324 6.39042ZM22.116 5.95591C22.116 5.07701 20.639 4.28613 19.0089 4.28613H18.9999C17.3698 4.28613 15.8928 5.07701 15.8928 5.95591L15.9253 6.17199L16.5761 9.91498L15.9224 10.2954L14.2307 11.2849H14.2368C14.2368 11.2849 13.8562 11.4807 13.68 11.6012C13.0357 12.0494 12.899 12.7033 13.273 12.9735C13.3651 12.4401 13.7857 11.8832 14.5738 11.8832C15.141 11.8832 15.5738 12.1765 15.9224 12.6162C16.0127 12.7273 16.0977 12.8459 16.1771 12.9735C16.2749 13.1345 16.3736 13.2757 16.4708 13.4118H12.1133C12.4338 14.0567 12.7383 14.7398 12.7383 15.4822V25.1435C12.7383 27.4822 14.5334 28.5984 16.4751 28.5984C17.976 28.5984 18.1781 28.5297 19.0061 29.3563C19.8303 28.5297 20.0328 28.5984 21.5347 28.5984C23.4778 28.5984 25.2705 27.4822 25.2705 25.1435V15.4822C25.2705 14.7398 25.5746 14.0567 25.8965 13.4118H21.5375C21.6348 13.2757 21.733 13.1345 21.8307 12.9735C21.9116 12.8459 21.9961 12.7273 22.0845 12.6162C22.4365 12.1746 22.8678 11.8832 23.4355 11.8832C24.2226 11.8832 24.6427 12.4401 24.7362 12.9735C25.1103 12.7033 24.975 12.0494 24.3269 11.6012C24.1535 11.4807 23.7724 11.2849 23.7724 11.2849H23.7786L22.0845 10.2954L21.4332 9.91498L22.0845 6.17199L22.116 5.95591Z" fill="#1A1919"/>
</svg>
</svg></g></svg>
