<svg xmlns="http://www.w3.org/2000/svg" width="104" focusable="false" height="11">
    <g id="tuiIconLogoTinkoff" xmlns="http://www.w3.org/2000/svg" transform="translate(-52,-5.5)">
        <svg x="50%" y="50%">
            <svg xmlns="http://www.w3.org/2000/svg"
                 width="104"
                 height="11"
                 viewBox="0 0 104 11">
                <path fill="currentColor" d="M4.12 10.06h3V3.08h4.12V.54H0v2.54h4.12v6.98zM20.34.54l-5 5.54V.54h-2.9v9.52H15l5-5.54v5.54h2.9V.54h-2.56zm7.657 5.98h4.66v3.54h2.9V.54h-2.9v3.48h-4.66V.54h-2.9v9.52h2.9V6.52zm15.636 3.54c.66 0 1.26-.06 1.82-.22 1.5-.42 2.48-1.64 2.48-3.3 0-1.58-.84-2.68-2.18-3.18-.64-.24-1.4-.26-2.12-.26h-2.98V.54h-2.9v9.52h5.88zm-2.98-4.72h2.48c.4 0 .78 0 1.12.12.48.16.76.56.76 1.04 0 .5-.28.92-.74 1.12-.32.14-.64.14-1.14.14h-2.48V5.34zm11.68 1.12h.8l3.46 3.6h3.86l-4.82-4.96 4.64-4.56h-3.64l-3.5 3.58h-.8V.54h-2.9v9.52h2.9v-3.6z"/>
                <path fill="currentColor" d="M66.42.28c-3.9 0-6.24 2.2-6.24 5.04s2.34 5.04 6.24 5.04c3.88 0 6.22-2.2 6.22-5.04S70.3.28 66.42.28zm0 7.76c-1.94 0-3.18-1.16-3.18-2.72 0-1.56 1.24-2.7 3.18-2.7 1.92 0 3.18 1.14 3.18 2.7 0 1.56-1.26 2.72-3.18 2.72zM82.298.96V0h-2.9v.96c-3.64.08-5.82 1.62-5.82 4.34 0 2.72 2.18 4.14 5.82 4.22v.96h2.9v-.96c3.66-.08 5.84-1.5 5.84-4.22 0-2.72-2.18-4.26-5.84-4.34zm-2.9 6.52c-2-.08-2.88-.9-2.88-2.18 0-1.28.88-2.2 2.88-2.28v4.46zm2.9 0V3.02c2.02.08 2.88 1 2.88 2.28 0 1.28-.86 2.1-2.88 2.18zM97.786.96V0h-2.9v.96c-3.64.08-5.82 1.62-5.82 4.34 0 2.72 2.18 4.14 5.82 4.22v.96h2.9v-.96c3.66-.08 5.84-1.5 5.84-4.22 0-2.72-2.18-4.26-5.84-4.34zm-2.9 6.52c-2-.08-2.88-.9-2.88-2.18 0-1.28.88-2.2 2.88-2.28v4.46zm2.9 0V3.02c2.02.08 2.88 1 2.88 2.28 0 1.28-.86 2.1-2.88 2.18z" />
            </svg></svg></g></svg>
